<svg version="1.1" id="Layer_1" xmlns="http://www.w3.org/2000/svg" xmlns:xlink="http://www.w3.org/1999/xlink" x="0" y="0" viewBox="0 0 128 128" style="enable-background:new 0 0 128 128" xml:space="preserve"><style>.st0{fill:#545554}.st1{fill:none;stroke:#545554;stroke-width:4;stroke-miterlimit:10}</style><image style="overflow:visible" width="335" height="534" xlink:href="../icons /Capture d’écran 2023-05-07 à 5.28 1.png" transform="translate(-154.65 -11.622) scale(.3421)"/><path class="st0" d="M76.1 71.3c.1-.2.1-.4.2-.6 0-.1.3-.7.1-.2.2-.3.3-.7.5-1 .1-.1.2-.3.3-.4-.3.5.1-.1.1-.1l.4-.4s.5-.4.2-.2.2-.1.2-.2c.2-.1.3-.2.5-.3.2-.1.4-.2.5-.3l.2-.1c.3-.1.7-.2 1-.3.6-.1-.4 0 .2 0H81.9h-.1c.4.1.7.2 1.1.3.1 0 .7.3.2.1.1.1.3.1.5.2l.9.6c-.5-.3.1.1.1.1l.4.4s.4.5.2.2.1.2.2.2c.2.3.4.7.6 1.1l.1.2c.1.2.1.4.2.6.3 1.3 1.8 2.2 3.1 1.7 1.3-.4 2.1-1.7 1.7-3.1-1.1-4.5-5.3-7.8-9.9-7.8-4.6 0-8.8 3.3-9.9 7.8-.3 1.3.4 2.8 1.7 3.1 1.4.4 2.8-.2 3.1-1.6zM53.4 88.9c1.1 4.5 5.3 7.8 9.9 7.8 4.6 0 8.8-3.3 9.9-7.8.3-1.3-.4-2.8-1.7-3.1-1.3-.3-2.7.4-3.1 1.7-.1.2-.1.4-.2.6 0 .1-.3.7-.1.2-.2.3-.3.7-.5 1-.1.1-.2.3-.3.4.3-.5-.1.1-.1.1l-.4.4s-.5.4-.2.2-.2.1-.2.2c-.2.1-.3.2-.5.3-.2.1-.4.2-.5.3l-.2.1c-.3.1-.7.2-1 .3-.6.1.4 0-.2 0H62.6h.1c-.4-.1-.7-.2-1.1-.3-.1 0-.7-.3-.2-.1-.1-.1-.3-.1-.5-.2l-.9-.6c.5.3-.1-.1-.1-.1l-.4-.4s-.4-.5-.2-.2-.1-.2-.2-.2c-.2-.3-.4-.7-.6-1.1l-.1-.2c-.1-.2-.1-.4-.2-.6-.3-1.3-1.8-2.2-3.1-1.7-1.3.4-2.1 1.7-1.7 3zM40.1 71.3c.1-.2.1-.4.2-.6 0-.1.3-.7.1-.2.2-.3.3-.7.5-1 .1-.1.2-.3.3-.4-.3.5.1-.1.1-.1l.4-.4s.5-.4.2-.2.2-.1.2-.2c.2-.1.3-.2.5-.3.2-.1.4-.2.5-.3l.2-.1c.3-.1.7-.2 1-.3.6-.1-.4 0 .2 0H45.9h-.1c.4.1.7.2 1.1.3.1 0 .7.3.2.1.1.1.3.1.5.2l.9.6c-.5-.3.1.1.1.1l.4.4s.4.5.2.2.1.2.2.2c.2.3.4.7.6 1.1l.1.2c.1.2.1.4.2.6.3 1.3 1.8 2.2 3.1 1.7 1.3-.4 2.1-1.7 1.7-3.1-1.1-4.5-5.3-7.8-9.9-7.8-4.6 0-8.8 3.3-9.9 7.8-.3 1.3.4 2.8 1.7 3.1 1.4.4 2.8-.2 3.1-1.6z"/><path class="st1" d="M35.6 43.5s6.2-7.3 11.2-9.5"/><path class="st0" d="M31.9 52.2c3.2 0 3.2-5 0-5s-3.2 5 0 5z"/><path d="M108.3 67.4c0 3.3-.3 6.4-.9 9.5-4.2 21.3-22 37.3-43.4 37.3-24.5 0-44.3-21-44.3-46.9 0-20.1 11.9-37.2 28.7-43.8-.4 1.5-.5 3.2-.4 4.8.5 9.2 8.4 16.2 17.5 15.7.6 0 1.2-.1 1.8-.2-1.3-2.2-2.1-4.8-2.2-7.5-.3-6.2 2.8-11.8 7.7-15 17.1 3.6 30.6 17.6 34.4 35.5.7 3.5 1.1 7 1.1 10.6z" style="fill:none;stroke:#545554;stroke-width:5;stroke-miterlimit:10"/><path class="st1" d="M119.5 66.9c0 5.5-4.5 10-10 10h-1c.6-3.1 1-6.3 1-9.5 0-3.6-.4-7-1.2-10.4.4 0 .8-.1 1.2-.1 5.5 0 10 4.5 10 10zM8.5 67.4c0 5.5 4.5 10 10 10h1c-.6-3.1-1-6.3-1-9.5 0-3.6.4-7 1.2-10.4-.4 0-.8-.1-1.2-.1-5.5 0-10 4.5-10 10z"/><path d="M79 19.1c-2.3.4-4.4 1.2-6.2 2.4-4.9 3.1-8 8.7-7.7 15 .1 2.7.9 5.3 2.2 7.5-.6.1-1.2.2-1.8.2-9.2.5-17-6.5-17.5-15.7-.1-1.7.1-3.3.4-4.8 1.7-7 7.8-12.3 15.3-12.7 6.4-.5 12.2 2.8 15.3 8.1z" style="fill:#fff;stroke:#545554;stroke-width:4;stroke-miterlimit:10"/></svg>