<svg version="1.1" id="Layer_1" xmlns="http://www.w3.org/2000/svg" x="0" y="0" viewBox="0 0 24 24" style="enable-background:new 0 0 24 24" xml:space="preserve"><style>.st1{fill:#555655}.st2{fill:none;stroke:#555655;stroke-width:.5;stroke-miterlimit:10}</style><path d="M10.5 5.5c-3.1.6-5.4 3.3-5.4 6.6a6.7 6.7 0 0 0 13.4 0c0-3.1-2.1-5.7-4.9-6.5" style="fill:none;stroke:#58595b;stroke-width:.75;stroke-miterlimit:10"/><path class="st1" d="M13.6 12.6v-.1s.1-.1 0 0c0-.1.1-.1.1-.2 0 0 0-.1.1-.1-.1.1 0 0 0 0l.1-.1s.1-.1 0 0c-.1 0 0 0 0 0s.1 0 .1-.1c0 0 .1 0 .1-.1-.1 0 0 0 0 0 .1 0 .1 0 .2-.1.1 0-.1 0 0 0H14.6c-.1 0-.1 0 0 0s.1 0 .2.1c0 0 .1.1 0 0h.1c.1.1.1.1.2.1-.1-.1 0 0 0 0l.1.1s.1.1 0 0c0-.1 0 0 0 0 0 .1.1.1.1.2 0-.1 0 0 0 0v.1c.1.2.3.4.5.3.2-.1.4-.3.3-.5-.2-.8-.9-1.4-1.7-1.4-.8 0-1.5.6-1.7 1.4-.1.2.1.5.3.5.3.2.5.1.6-.1zM8.2 12.9v-.1s.1-.1 0 0c0-.1.1-.1.1-.2 0 0 0-.1.1-.1-.1.1 0 0 0 0l.1-.1s.1-.1 0 0c-.1 0 0 0 0 0s.1 0 .1-.1c0 0 .1 0 .1-.1-.1 0 0 0 0 0 .1 0 .1 0 .2-.1.1 0-.1 0 0 0H9.2c-.1 0-.1 0 0 0s.1 0 .2.1c0 0 .1.1 0 0h.1c.1 0 .1.1.2.1-.1-.1 0 0 0 0l.1.1s.1.1 0 0c0-.1 0 0 0 0 0 .1.1.1.1.2 0-.1 0 0 0 0v.1c.1.2.3.4.5.3.2-.1.4-.3.3-.5-.2-.8-.9-1.4-1.7-1.4s-1.5.6-1.7 1.4c-.1.2.1.5.3.5.3.2.5.1.6-.1zM11.1 14.8v.1s.1.1 0 0c0 .1.1.1.1.2 0 0 0 .1.1.1-.1-.1 0 0 0 0l.1.1s.1.1 0 0c-.1 0 0 0 0 0s.1 0 .1.1c0 0 .1 0 .1.1-.1 0 0 0 0 0 .1 0 .1 0 .2.1.1 0-.1 0 0 0H12.1c-.1 0-.1 0 0 0s.1 0 .2-.1c0 0 .1-.1 0 0h.1c.1 0 .1-.1.2-.1-.1.1 0 0 0 0l.1-.1s.1-.1 0 0c0 .1 0 0 0 0 0-.1.1-.1.1-.2 0 .1 0 0 0 0V15c.1-.2.3-.4.5-.3.2.1.4.3.3.5-.2.8-.9 1.4-1.7 1.4-.8 0-1.5-.6-1.7-1.4-.1-.2.1-.5.3-.5.3-.2.6-.1.6.1z"/><path class="st2" d="M7.1 9.4s1-1.5 1.7-2"/><path class="st1" d="M6.8 10.2c.2 0 .2-.5 0-.5-.3 0-.3.5 0 .5z"/><path class="st2" d="M20 12.2c0 .8-.7 1.5-1.5 1.5h-.2c.1-.5.2-1 .2-1.4 0-.5-.1-1.1-.2-1.6h.2c.8 0 1.5.7 1.5 1.5zM3.7 12.2c0 .8.7 1.5 1.5 1.5h.2c-.1-.5-.2-1-.2-1.4 0-.5.1-1.1.2-1.6h-.2c-.8 0-1.5.7-1.5 1.5z"/><path d="M13.9 6.1c-.3.1-.6.2-.8.3-.7.4-1.1 1.1-1.1 1.9 0 .3.1.7.3 1h-.2c-1.3.1-2.3-.8-2.4-2 0-.2 0-.4.1-.6.2-.9 1-1.6 2-1.7.9 0 1.7.4 2.1 1.1z" style="fill:none;stroke:#555655;stroke-miterlimit:10"/></svg>